<?xml version="1.0" encoding="utf-8"?>

<!DOCTYPE svg PUBLIC "-//W3C//DTD SVG 1.1//EN" "http://www.w3.org/Graphics/SVG/1.1/DTD/svg11.dtd">
<svg version="1.1" id="Layer_1" xmlns="http://www.w3.org/2000/svg" xmlns:xlink="http://www.w3.org/1999/xlink" x="0px" y="0px"
	 viewBox="-742.6563 672.1074 2089.1938 608.6925" enable-background="new -742.6563 672.1074 2089.1938 608.6925"
	 xml:space="preserve">
<path fill="#4FA5BF" d="M-697.2383,929.1906c2.9284-6.6304,7.2693-12.5345,12.2823-17.7299c17.7197-19.1049,38.8505-33.0872,65.4435-35.3262
	c9.0131-0.7589,16.9868-1.177,17.5165-11.5614c-0.0443-9.7307,1.0624-19.4107,1.2982-29.136
	c0.5309-12.9808,4.3096-25.5264,8.8461-37.6147c5.6837-14.6381,14.3068-28.1456,25.2684-39.3923
	c9.857-10.3279,20.6364-19.9313,32.8831-27.3392c12.296-7.4487,24.8831-14.8323,38.8714-18.6091
	c74.9268-20.5931,156.5201,5.0599,220.57,44.9319c11.6033,7.2051,23.129,14.5515,34.2251,22.5153
	c9.3232,6.6235,17.6966,14.4532,26.7947,21.3706c13.8921,10.6669,26.1658,23.2214,39.6853,34.3248
	c7.9627,6.6064,15.1793,14.0457,21.9325,21.8727c7.9049,9.1078,16.4303,17.6451,24.463,26.6207
	c10.1733,11.3598,22.611,20.6011,36.2477,27.3918c14.7632,7.1717,31.5597,8.5983,47.7447,8.1649
	c14.3419-0.6022,28.7058-1.0849,43.0054-2.4165c8.6314-0.5859,17.4935-1.7156,25.9838,0.6013
	c9.0621,2.4173,15.9556,9.6719,25.1907,11.6763c10.5316,2.3725,21.3918,1.1089,32.0765,1.2985
	c15.7596-0.1561,32.5422,1.0406,46.956-6.5538c7.7567-3.8116,14.5135-11.1667,23.7938-10.6334
	c12.9991,1.0207,20.9652,13.1579,32.939,16.8362c7.8625,2.4476,16.2085,2.1466,24.3516,2.2591
	c0,0,1071.3442,0.5156,1077.3231,2.6592c10.8167,3.8782,16.9464,15.8078,19.1052,26.4808
	c2.2257,10.9839,2.8611,23.135-2.4268,33.3757c-2.7271,5.5269-8.1418,9.4388-14.1637,10.5607
	c-11.077,2.0474-22.4117,0.6786-33.5282,2.1665c-8.1334,1.0475-16.6798,3.7021-22.121,10.1949
	c-5.2958,6.2203-6.4432,14.6709-6.7805,22.5377c-0.5834,24.0833-2.9487,48.0667-3.9426,72.1168
	c-1.8156,23.9741-1.9891,48.0405-3.7946,72.0144c-1.0511,14.1597-1.3514,28.3568-2.3822,42.5262
	c-0.5256,5.0096-1.3704,10.6547-5.4222,14.1335c-4.5566,3.7876-10.8347,3.9536-16.4624,4.1385
	c-13.3098,0.1149-26.6068,0.4094-39.8967,0.5238c-8.8979,0.0767-22.7687,0.0979-27.7665-8.595
	c-5.8896-10.244-6.7321-22.7986-6.2583-34.3473c0.8085-19.7035,0.973-39.2844,2.1803-58.9045
	c0.5283-6.6199,1.4222-14.0959,6.6736-18.7953c4.9241-4.3964,11.2334-3.8477,17.1122-6.1039
	c3.8967-1.4956,7.551-3.9813,9.6736-7.5752c3.8253-6.4769,0.7078-15.1073-5.4172-18.9159
	c-4.4382-2.7599-9.7606-3.6388-14.9406-4.3335c-14.5498-1.9517-29.2531-2.892-43.9331-2.4806
	c-7.4589,0.209-14.9094,0.7661-22.3109,1.7201c-6.9495,0.8956-15.6042,0.4564-20.6794,6.0922
	c-2.9844,3.314-4.4634,7.7827-4.8015,12.2295c-0.3751,4.9353-0.5447,13.1385,4.2893,16.0563c2.5466,1.5371,5.735,1.27,8.6862,1.6431
	c13.7356,1.7362,19.5056,17.2804,19.6621,29.3911c0.3837,22.7168-0.5728,45.4362-1.5195,68.1354
	c-0.7192,6.5731-0.6381,13.7427-4.4022,19.4572c-3.663,5.1825-10.5306,5.9686-16.3582,6.167
	c-12.6672,0.264-25.3385,0.2979-37.9976,0.4617c-8.9437-0.1489-18.6423,0.6149-26.6237-4.141
	c-6.4734-3.7012-9.7299-11.1572-10.1616-18.361c-0.8393-12.3876-0.079-24.8223,0.1614-37.2281
	c0.6631-25.2848,0.1755-50.6101,1.7891-75.871c0.5989-24.3535,0.5773-48.7267,0.736-73.0929
	c-0.0158-8.0408-0.4095-17.1454-6.4133-23.235c-6.3597-6.4435-15.9552-7.2816-24.5118-7.5972l-752.0884-0.0703
	c-7.4308,0.0155-15.1246,0.4455-21.941,3.681c-7.5358,3.2777-13.4423,10.0485-21.8427,11.2805
	c-6.5139,1.0101-12.6808-2.3062-17.5983-6.2637c-5.7492-4.6436-12.0413-8.8579-19.2649-10.7863
	c-13.7862-3.8077-28.2493-3.8635-42.4347-3.4739c-11.237,0.2698-22.799,1.4352-33.0262,6.4286
	c-7.0663,3.2397-12.6323,8.8546-19.421,12.5397c-7.4316,4.1161-16.3207,3.056-24.3164,1.6009
	c-11.5687-2.195-23.2836-3.5674-35.0344-4.1091c-18.6122-0.5658-37.9725,0.1713-55.1821,8.043
	c-15.5631,7.0538-27.9195,19.2142-40.0028,30.97c-13.1948,12.8546-25.4739,26.6339-39.0657,39.0752
	c-13.9348,13.4572-28.215,26.5902-43.2609,38.806c-15.5633,12.3745-32.1297,23.3859-48.502,34.6439
	c-17.7014,12.4253-38.0697,22.1355-57.4594,31.5939c-19.0907,9.3126-39.3612,16.1803-60.1503,20.5208
	c-47.0048,9.8137-97.3305,7.5334-141.2914-12.0972c-10.3593-4.6057-19.0362-12.0503-27.9236-18.9312
	c-6.5466-5.0702-12.663-10.7277-17.8823-17.1605c-8.4746-10.2683-16.232-21.299-21.1926-33.7269
	c-7.202-16.0507-9.4601-33.6851-11.3729-51.0052c-0.8834-9.6664,2.4056-19.8234-1.3818-29.1107
	c-0.7045-1.7277-28.9271-2.3713-32.2405-3.1467c-12.1062-2.8329-23.6803-7.9723-33.8396-15.1479
	c-27.9063-19.7104-43.5598-53.7305-40.7956-87.7358C-704.1732,945.54-700.7932,937.2217-697.2383,929.1906 M-688.0224,952.5582
	c-2.1764,15.0389-0.8486,30.8887,5.7958,44.7184c8.8787,18.48,23.8322,34.8497,43.306,42.912
	c8.9226,3.6941,21.1865,7.162,30.7166,4.5631c11.0662-3.0178,20.561-12.8165,27.4963-21.4267
	c6.8248-8.4728,12.6257-17.7522,19.755-25.9704c6.3304-7.2975,14.1812-14.9365,13.8636-24.5919
	c-0.1983-6.0305-3.6536-11.4042-6.9924-16.4301c-6.8332-10.2856-13.6664-20.5712-20.4996-30.8567
	c-6.3636-9.5788-12.9673-19.4047-22.4801-25.8665c-25.3002-17.186-62.6615,4.9134-78.7396,25.6985
	C-682.1801,933.1068-686.6315,942.5333-688.0224,952.5582 M-528.8073,1121.9427c3.54,7.9127,8.6293,15.1572,15.3908,21.2255
	c20.7579,18.6293,52.14,26.6698,79.4864,26.5745c44.8077-0.1561,86.9194-21.1278,125.4123-41.8577
	c45.3243-24.4089,84.8698-58.1715,120.6959-94.8317c12.1455-12.2168,23.6607-25.0331,34.7499-38.2022
	c8.509-10.8558,15.2351-20.5208,10.1882-34.8441c-3.0625-8.6916-9.1607-15.9416-15.4113-22.7131
	c-13.6942-14.8353-27.3766-29.867-40.5883-45.184c-9.8658-11.515-21.8063-20.9147-32.9402-31.1182
	c-9.4664-8.5914-20.1084-15.7227-29.8783-23.9289c-30.1298-25.0478-67.4475-46.4999-104.2632-59.7958
	c-35.1668-12.7003-78.9256-19.7404-114.733-5.6456c-9.9349,3.9384-20.1408,7.8212-28.5676,14.5945
	c-14.5832,11.778-25.3895,28.6728-28.4957,47.278c-5.8448,41.7514,20.1774,84.2709,53.7869,107.3392
	c6.3602,4.3654,13.1359,8.1849,18.9376,13.269c3.9162,3.4319,9.8117,9.2438,10.6112,14.706
	c0.969,6.6207-3.9651,10.095-8.9012,14.1602c-28.849,22.3265-56.4043,46.6514-67.7767,82.8203
	C-536.881,1084.1635-536.5439,1104.6492-528.8073,1121.9427z"/>
</svg>
