<?xml version="1.0" encoding="UTF-8" standalone="no"?>
<!-- Created with Inkscape (http://www.inkscape.org/) -->
<!-- ClipArt by Arvin61r58 (http://openclipart.org/user-detail/Arvin61r58) -->
<svg xmlns:inkscape="http://www.inkscape.org/namespaces/inkscape" xmlns:rdf="http://www.w3.org/1999/02/22-rdf-syntax-ns#" xmlns="http://www.w3.org/2000/svg" xmlns:sodipodi="http://sodipodi.sourceforge.net/DTD/sodipodi-0.dtd" xmlns:ns1="http://sozi.baierouge.fr" xmlns:cc="http://creativecommons.org/ns#" xmlns:xlink="http://www.w3.org/1999/xlink" xmlns:dc="http://purl.org/dc/elements/1.1/" id="svg2" viewBox="0 0 729.84 308.59" version="1.1" inkscape:version="0.91 r13725">
  <title id="title4394">House Key</title>
  
  <g id="layer1" transform="translate(-7.1202 650.59) scale(1, -1)">
    <g id="g4381" transform="translate(24.339 4.4924)">
      <path id="path3147" style="stroke:#0F0F0F;stroke-width:2.4276px;fill:#0F0F0F" d="m93.002 374.3-26.324 38.841-77.683 60.386 0.07586 48.855-0.07586 48.855 77.683 60.31 26.324 38.917 70.476-0.22746 26.021-39.145-0.37931-30.496 8.1931-25.11 25.338 0.30345 0.37931-18.89 8.7241-12.062 443.87 0.75862 30.8-17.145v-10.924l-30.8-17.903h-27.69l-27.007 4.7793-28.524-4.7034-27.69-7.131-27.765 7.131h-27.765l-27.69-8.6482-13.883 8.7241h-13.883l-27.765-7.131-27.765 7.131-26.931-13.428-29.283 18.965-27.007-11.834-27.69 12.669-27.765-14.186-27.765 7.8896-8.7241-12.062-0.37931-18.814-25.338 0.30345-8.1931-25.186 0.37931-30.421-26.021-39.145-70.476-0.22759zm-49.765 114.1v32.317 3.4138 32.241l-41.269-13.352v-18.89-3.4138-18.965l41.269-13.352z"/>
      <path id="path4030" style="block-progression:tb;text-indent:0;color:#000000;text-transform:none;fill:#0F0F0F" d="m259.57 519.56v4.3328h446.14v-4.3328h-446.14zm-18.326 2.8631v4.3328h464.35v-4.3328h-464.35z"/>
      <path id="path4062" style="opacity:.65;block-progression:tb;text-indent:0;color:#000000;text-transform:none;fill:#0F0F0F" d="m259.57 519.56v4.3328h446.14v-4.3328h-446.14zm-18.326 2.8631v4.3328h464.35v-4.3328h-464.35z"/>
      <path id="path4150" style="stroke:#0F0F0F;stroke-width:3.6414;fill:#0F0F0F" d="m94.791 669.36v-295.85"/>
      <path id="path4154" style="stroke:#0F0F0F;stroke-width:3.6414;fill:#0F0F0F" d="m161.46 669.87v-295.85"/>
      <path id="path4164" style="stroke-linejoin:bevel;stroke:#0F0F0F;stroke-linecap:round;stroke-width:3.6414;fill:#0F0F0F" d="m67.105 631.01v-217.41"/>
      <path id="path4168" style="stroke:#0F0F0F;stroke-width:3.6414;fill:none" d="m197.82 576.03v-106.84"/>
    </g>
  </g>
  <metadata>
    <rdf:RDF>
      <cc:Work>
        <dc:format>image/svg+xml</dc:format>
        <dc:type rdf:resource="http://purl.org/dc/dcmitype/StillImage"/>
        <cc:license rdf:resource="http://creativecommons.org/licenses/publicdomain/"/>
        <dc:publisher>
          <cc:Agent rdf:about="http://openclipart.org/">
            <dc:title>Openclipart</dc:title>
          </cc:Agent>
        </dc:publisher>
      </cc:Work>
      <cc:License rdf:about="http://creativecommons.org/licenses/publicdomain/">
        <cc:permits rdf:resource="http://creativecommons.org/ns#Reproduction"/>
        <cc:permits rdf:resource="http://creativecommons.org/ns#Distribution"/>
        <cc:permits rdf:resource="http://creativecommons.org/ns#DerivativeWorks"/>
      </cc:License>
    </rdf:RDF>
  </metadata>
</svg>
